# xmcd
#
# Track frame offsets: 
#        150
#        8772
#        26482
#        42457
#        66392
#        86322
#        110625
#        128715
#        151862
#        171885
#        193040
#        223860
#        243810
#
# Disc length: 3425 seconds
#
# Revision: 1
# Processed by: cddbd v1.5.2PL0 Copyright (c) Steve Scherf et al.
# Submitted via: ExactAudioCopyFreeDBPlugin 1.0
#
DISCID=aa0d5f0d
DTITLE=陳永淘 - 細人
DYEAR=2014
DGENRE=Folk/Rock
TTITLE0=母河
TTITLE1=苦戀
TTITLE2=猴子走哪去
TTITLE3=頭擺个事情
TTITLE4=鮮鮮河水
TTITLE5=大戲
TTITLE6=雞胲仙堵到膨風牯
TTITLE7=農莊搖滾
TTITLE8=阿東的歌
TTITLE9=腳步
TTITLE10=細人
TTITLE11=天上搖籃曲
TTITLE12=新芽
EXTD=
EXTT0=
EXTT1=
EXTT2=
EXTT3=
EXTT4=
EXTT5=
EXTT6=
EXTT7=
EXTT8=
EXTT9=
EXTT10=
EXTT11=
EXTT12=
PLAYORDER=
